Cop.Out.2010.1080p.Bluray.DTS.x264-LTT.mkv
******************************************

TiTLE......  Cop Out
YEAR.......  2010
GENRE......  Action | Comedy | Crime
iMDB RATE..  User Rating: 5.9/10 (8,445 votes)
iMDB URL...  http://www.imdb.com/title/tt1385867/
*************************************************
Video
Duration                         : 1h 47mn
Overall bit rate                 : 8 600 Kbps
Width                            : 1 920 pixels
Height                           : 816 pixels
Display aspect ratio             : 2.35:1
Frame rate                       : 23.976 fps
Stream size                      : 5.19 GiB (80%)

Audio
Format                           : DTS
Format/Info                      : Digital Theater Systems
Bit rate                         : 1 510 Kbps
Channel(s)                       : 6 channels
Channel positions                : Front: L C R, Surround: L R, LFE
Sampling rate                    : 48.0 KHz
Resolution                       : 24 bits
Stream size                      : 1.13 GiB (18%)
Language                         : English

Subtitles: English (*.srt)
**************************
